PathFileType	4	(X/Y/Z)	C:\Users\Basilio\Documents\Thesis Gigler\squatting_fais\c3dfiles\076\SJ_pre5\markers_experimental.trc
DataRate	CameraRate	NumFrames	NumMarkers	Units	OrigDataRate	OrigDataStartFrame	OrigNumFrames
200.000000	200.000000	4	61	mm	200.000000	0	1289
Frame#	Time	FHD			LBHD			RBHD			C7			T10			CLAV			LSHO			LUUPA			LMUPA			LDUPA			LLEP			LMEP			LRAD			LUL			LRFIN			RSHO			RUPA1			RMUPA			RDUPA			RLEP			RMEP			RRAD			RUL			RUFIN			LASI			RASI			USACR			LSACR			RSACR			LTHI1			LTHI2			LTHI3			LTHI4			LLFC			LMFC			LTIB1			LTIB2			LTIB3			LTIB4			LLMAL			LMMAL			LHEE			LMT1			LMT2			LMT5			RTHI			RTHI2			RTHI3			RTHI4			RLFC			RMFC			RTIB1			RTIB2			RTIB3			RTIB4			RLMAL			RMMAL			RHEE			RMT1			RMT2			RMT5			
		X1	Y1	Z1	X2	Y2	Z2	X3	Y3	Z3	X4	Y4	Z4	X5	Y5	Z5	X6	Y6	Z6	X7	Y7	Z7	X8	Y8	Z8	X9	Y9	Z9	X10	Y10	Z10	X11	Y11	Z11	X12	Y12	Z12	X13	Y13	Z13	X14	Y14	Z14	X15	Y15	Z15	X16	Y16	Z16	X17	Y17	Z17	X18	Y18	Z18	X19	Y19	Z19	X20	Y20	Z20	X21	Y21	Z21	X22	Y22	Z22	X23	Y23	Z23	X24	Y24	Z24	X25	Y25	Z25	X26	Y26	Z26	X27	Y27	Z27	X28	Y28	Z28	X29	Y29	Z29	X30	Y30	Z30	X31	Y31	Z31	X32	Y32	Z32	X33	Y33	Z33	X34	Y34	Z34	X35	Y35	Z35	X36	Y36	Z36	X37	Y37	Z37	X38	Y38	Z38	X39	Y39	Z39	X40	Y40	Z40	X41	Y41	Z41	X42	Y42	Z42	X43	Y43	Z43	X44	Y44	Z44	X45	Y45	Z45	X46	Y46	Z46	X47	Y47	Z47	X48	Y48	Z48	X49	Y49	Z49	X50	Y50	Z50	X51	Y51	Z51	X52	Y52	Z52	X53	Y53	Z53	X54	Y54	Z54	X55	Y55	Z55	X56	Y56	Z56	X57	Y57	Z57	X58	Y58	Z58	X59	Y59	Z59	X60	Y60	Z60	X61	Y61	Z61	

1	0	-79.94966888427736	1512.106567382813	-903.605163574219	-212.6476440429688	1532.770263671875	-1029.09619140625	-227.0618286132813	1540.437744140625	-876.8111572265627	-334.5616149902344	1429.431274414063	-963.777526855469	-403.4651489257814	1104.71435546875	-968.7080688476565	-221.6867980957032	1323.362426757813	-941.6109619140627	-265.2792968750001	1362.735717773438	-1120.78125	-281.5612792968751	1223.677978515625	-1259.383422851563	-271.6194763183594	1176.654541015625	-1244.662231445313	-291.9931335449219	1168.71484375	-1301.247314453125	-305.1714782714844	1122.252197265625	-1332.859741210938	-390.4831848144532	1116.396484375	-1305.425415039063	-321.6217651367188	985.2420043945315	-1137.734619140625	-279.1464538574219	944.406677246094	-1163.357666015625	-273.7575683593751	1005.188903808594	-1115.264526367188	-318.4563598632813	1365.54736328125	-792.4659423828127	-410.4782104492189	1244.897094726563	-664.3992309570314	-382.8912048339844	1204.39208984375	-653.8730468750001	-433.8448791503907	1190.731201171875	-624.2833862304689	-438.7521362304689	1122.095581054688	-598.8345336914064	-498.4383544921876	1109.629150390625	-664.9932861328126	-374.9600830078126	974.0511474609377	-777.3389892578127	-321.0472717285157	995.5463867187502	-776.152770996094	-336.9116821289063	943.8756103515627	-729.8416748046876	-237.156234741211	913.141784667969	-1054.107666015625	-258.5772399902344	912.3952636718752	-842.3593750000002	-409.6287231445314	994.6906738281252	-963.6131591796877	-416.0299072265626	966.6180419921877	-992.5560302734377	-420.6495666503907	965.1790771484377	-936.7425537109377	-314.0843200683594	766.7973022460939	-1135.42138671875	-283.7846069335938	687.0032958984376	-1137.456420898438	-235.7176208496094	689.6658325195314	-1122.896728515625	-313.2049865722657	634.1468505859376	-1127.208740234375	-305.4398803710938	473.698211669922	-1113.159423828125	-283.5975341796876	460.2593383789064	-997.6275024414065	-292.0114746093751	321.9877319335938	-1050.085327148438	-313.2810058593751	274.0303649902344	-1123.1904296875	-288.8340454101563	273.0440368652344	-1083.228149414063	-314.2185363769532	196.831527709961	-1057.774536132813	-375.2235412597657	80.82273864746095	-1127.00390625	-358.7990417480469	87.92704010009767	-1042.31201171875	-435.5999450683595	43.07109069824219	-1090.316650390625	-227.4391784667969	52.93247604370119	-1053.767456054688	-219.4505767822266	53.86524963378908	-1091.540405273438	-231.7966461181641	43.91440963745118	-1144.0595703125	-365.9062194824219	676.9937744140626	-774.4100341796877	-333.1076660156251	620.2551269531251	-757.5494384765626	-297.9608459472657	620.9948120117189	-759.0494995117189	-359.6002502441407	543.6231689453126	-771.8377685546877	-356.9792175292969	481.9856262207032	-769.442321777344	-312.6846008300782	462.238006591797	-876.5771484375002	-315.7735290527344	345.9134826660157	-770.034851074219	-389.721649169922	270.5897827148438	-743.6915283203126	-343.0681762695313	265.6809692382813	-749.1001586914064	-327.5084533691407	216.5634460449219	-775.7761840820315	-389.578582763672	79.24874114990236	-736.0850830078126	-366.4968261718751	86.94232177734376	-817.9622192382815	-443.9957885742189	50.87929534912111	-778.286804199219	-238.7740020751954	51.59201049804689	-792.2650146484377	-233.3582916259766	55.97545242309572	-747.7119750976564	-259.8189697265626	33.04915237426759	-694.3309326171876	
2	0.005	-78.88250732421876	1511.2978515625	-904.121276855469	-213.1487884521485	1531.93994140625	-1029.11474609375	-225.8423004150391	1539.905639648438	-877.066833496094	-333.7799682617188	1429.343139648438	-964.0239868164065	-403.3855285644532	1104.857177734375	-969.1511840820315	-221.1461639404297	1322.962036132813	-942.1592407226565	-265.0750427246094	1362.726928710938	-1121.244018554688	-282.2563781738282	1223.7861328125	-1259.967529296875	-272.4870605468751	1176.629150390625	-1245.336547851563	-293.1604003906251	1168.764892578125	-1301.929565429688	-307.3529663085938	1122.644165039063	-1333.921264648438	-391.6280212402345	1116.818725585938	-1305.726684570313	-322.6330261230469	985.182800292969	-1138.502807617188	-280.4734191894532	944.166198730469	-1164.434204101563	-274.6421508789063	1004.842712402344	-1116.262084960938	-317.3781127929688	1365.250732421875	-792.7532958984377	-409.2966918945314	1244.861206054688	-664.5443725585939	-381.8754577636719	1204.20166015625	-654.3070068359376	-432.840789794922	1190.708862304688	-624.4805297851564	-437.9327087402345	1122.102905273438	-599.0388793945314	-498.1352844238282	1110.064819335938	-664.9985351562501	-375.6811523437501	973.6907958984377	-777.866394042969	-321.1294860839844	995.2898559570315	-776.802429199219	-337.1182556152344	943.6434326171877	-730.4210205078126	-237.7298736572266	913.0129394531252	-1055.063598632813	-258.7087097167969	912.2053833007815	-843.1202392578127	-409.9777832031251	994.6655883789065	-964.0147094726565	-417.1959838867189	966.5571289062502	-993.044860839844	-421.6333618164064	964.639099121094	-936.7698364257815	-314.5965576171876	766.5340576171876	-1136.020141601563	-283.9808654785157	686.9097900390626	-1138.135498046875	-235.8738098144532	689.7061767578126	-1123.74462890625	-313.2233581542969	633.9802856445314	-1127.68408203125	-304.8456420898438	473.6133728027345	-1113.644897460938	-282.8170776367188	460.219207763672	-998.1761474609377	-291.4626770019532	321.8560791015626	-1050.502319335938	-312.8873596191407	273.9340515136719	-1123.494018554688	-288.3536987304688	272.9997253417969	-1083.55322265625	-313.9094848632813	196.8309631347657	-1057.976684570313	-375.1598205566407	80.83956909179689	-1127.008666992188	-358.7545471191407	87.96578216552736	-1042.360595703125	-435.5998840332032	43.07101440429688	-1090.316650390625	-227.3994750976563	52.92906570434572	-1053.785278320313	-219.4085388183594	53.82678985595705	-1091.565795898438	-231.8233337402344	43.91483306884766	-1144.092895507813	-366.1615905761719	676.9988403320314	-774.774841308594	-333.3255920410157	620.2690429687501	-758.0249023437501	-298.2118835449219	620.9537353515626	-759.6400146484376	-359.9122619628907	543.5769653320314	-772.2053222656252	-357.3337097167969	482.008026123047	-769.8331298828127	-313.0303649902344	462.243865966797	-876.9968872070315	-315.9747619628907	345.9321899414063	-770.3100585937502	-389.8952636718751	270.6593933105469	-743.8840332031251	-343.2742614746094	265.7305603027344	-749.1951293945314	-327.3326416015626	216.4091186523438	-775.653747558594	-389.6195373535157	79.24963378906251	-736.0315551757814	-366.7487792968751	86.51720428466798	-818.0893554687502	-444.0115051269532	50.8707962036133	-778.2479248046877	-238.7903442382813	51.60850143432619	-792.2579345703127	-233.3768157958985	55.97169113159181	-747.7184448242189	-259.8352966308594	33.08256149291993	-694.2919311523439	
3	0.01	-77.89122772216798	1510.406372070313	-904.6104125976565	-211.905502319336	1531.497802734375	-1029.5654296875	-224.8266906738282	1539.502807617188	-877.3566894531252	-333.0335388183594	1429.307495117188	-964.265319824219	-403.2294311523439	1105.004150390625	-969.697937011719	-220.6110839843751	1322.485717773438	-942.876403808594	-264.8581848144532	1362.656494140625	-1121.718017578125	-282.8054504394532	1223.8046875	-1260.5205078125	-273.2724914550782	1176.675537109375	-1245.874877929688	-294.1734924316407	1168.829223632813	-1302.458374023438	-308.5896606445313	1122.696899414063	-1334.394897460938	-392.9323730468751	1117.322509765625	-1306.026489257813	-323.8142089843751	985.0571289062502	-1139.307861328125	-281.8145446777344	943.933776855469	-1165.405639648438	-275.6122131347657	1004.543884277344	-1117.197387695313	-316.2684326171876	1364.9404296875	-793.1509399414065	-408.1252746582032	1244.798828125	-664.7272949218751	-380.8052978515626	1204.013793945313	-654.6448364257814	-431.6885070800782	1190.693115234375	-624.6129150390626	-437.1125793457032	1122.089477539063	-599.2756347656251	-497.6922607421876	1110.47607421875	-665.0559692382814	-375.8383789062501	973.6630859375002	-778.3876953125002	-321.1908874511719	995.049255371094	-777.4388427734377	-337.2493896484376	943.349548339844	-731.0209350585939	-238.2066192626954	912.8725585937502	-1055.96875	-258.8415832519532	911.995300292969	-843.8800048828127	-410.2469177246095	994.6015625000002	-964.5316162109377	-418.5714416503907	967.1148071289065	-993.5433349609377	-422.4383239746095	965.0606079101565	-937.2739868164065	-315.1082153320313	766.0140380859376	-1136.7685546875	-284.2138061523438	686.8507690429689	-1138.73046875	-236.0764160156251	689.7991943359376	-1124.721435546875	-313.2774963378907	633.8304443359376	-1128.21630859375	-304.4010620117188	473.5606079101564	-1114.143188476563	-281.9250488281251	460.2353820800782	-998.813171386719	-291.3427429199219	322.0603942871094	-1051.02587890625	-312.5792236328126	273.8227539062501	-1123.707275390625	-287.9054870605469	272.9504699707032	-1083.841552734375	-313.6272888183594	196.8044738769532	-1058.1943359375	-375.1198730468751	80.82144927978517	-1127.051391601563	-358.6548767089844	88.01977539062501	-1042.371704101563	-435.572235107422	43.0884132385254	-1090.298828125	-227.380355834961	52.94454193115236	-1053.802001953125	-218.3537750244141	54.00953292846681	-1091.380859375	-231.8235473632813	43.84159088134766	-1144.078002929688	-366.3586120605469	676.9705810546876	-775.1843261718752	-333.4914245605469	620.2412109375001	-758.4570922851564	-298.5203247070313	620.8843383789064	-760.2291870117189	-360.2270507812501	543.5747070312501	-772.6075439453127	-357.6633911132813	481.9844055175782	-770.2113037109377	-313.5065917968751	462.1171264648439	-877.432312011719	-316.2030944824219	345.9840698242188	-770.5480957031252	-390.1087951660157	270.6505126953126	-744.0469360351564	-343.4525756835938	265.7928466796876	-749.4001464843751	-327.4454345703126	216.4301147460938	-775.8005371093752	-389.6808471679689	79.25375366210939	-736.0690917968751	-366.7493286132813	86.54027557373048	-818.0885009765627	-444.0422363281251	50.85025024414064	-778.224060058594	-238.8128204345704	51.60005950927736	-792.2413330078127	-233.3831481933594	55.97431564331056	-747.7203369140626	-259.8297729492188	33.02611160278321	-694.2885742187501	
4	0.015	-76.90673828125001	1509.541748046875	-904.913269042969	-209.4400634765626	1531.770629882813	-1030.354736328125	-223.6607666015626	1539.043579101563	-877.8480224609377	-332.3194885253907	1429.225341796875	-964.4938964843752	-403.1778564453126	1105.095825195313	-970.2202758789065	-220.0936126708985	1322.069702148438	-943.490905761719	-264.6936950683594	1362.6298828125	-1122.291870117188	-283.5376281738282	1223.859985351563	-1261.182250976563	-274.0828552246094	1176.71875	-1246.53564453125	-295.1594238281251	1168.899658203125	-1302.972534179688	-309.1401062011719	1122.516357421875	-1334.5419921875	-394.0538635253907	1117.76318359375	-1306.345092773438	-324.6241455078126	984.9478759765627	-1140.043212890625	-283.0687561035157	943.7010498046877	-1166.365966796875	-276.5028686523438	1004.326110839844	-1118.180297851563	-315.1064758300782	1364.210083007813	-793.834411621094	-406.9080505371095	1244.638916015625	-664.8922729492189	-379.7830810546876	1203.744506835938	-654.9760742187501	-430.6701049804689	1190.66357421875	-624.7858276367189	-436.2321777343751	1122.052612304688	-599.5254516601564	-497.1022949218751	1110.835327148438	-665.0627441406251	-375.9479980468751	973.5996704101565	-778.9136962890627	-321.2389831542969	994.757751464844	-778.073425292969	-337.3968505859376	943.0275878906252	-731.6607055664064	-238.7040405273438	912.678894042969	-1056.963134765625	-259.1331787109376	911.7708129882815	-844.7329711914065	-410.4345703125001	994.5692138671877	-965.0974121093752	-418.2158813476564	966.4805297851565	-993.994323730469	-422.4751586914064	964.5957641601565	-937.7861938476565	-315.6184387207032	765.8585205078126	-1137.31982421875	-284.4422302246094	686.7163085937501	-1139.574951171875	-236.3839874267579	689.8197631835939	-1125.671264648438	-313.3080749511719	633.6983032226564	-1128.80615234375	-303.9183044433594	473.4821777343751	-1114.679077148438	-281.1538085937501	460.3036193847657	-999.459411621094	-291.0334472656251	322.0272216796876	-1051.304565429688	-312.1950378417969	273.7417602539063	-1123.972778320313	-287.7588500976563	272.7658996582032	-1084.12939453125	-313.3580932617188	196.8613281250001	-1058.333740234375	-375.0657653808594	80.84887695312501	-1127.0419921875	-358.5656433105469	88.07517242431642	-1042.405151367188	-435.5429077148439	43.13940811157227	-1090.249389648438	-227.3786926269532	52.9401092529297	-1053.808227539063	-218.3142852783204	53.9760093688965	-1091.447021484375	-231.8311004638672	43.8360710144043	-1144.117797851563	-366.5189208984376	676.9548339843751	-775.6077880859377	-333.6270751953126	620.1872558593751	-758.9194946289064	-298.6255187988282	620.7514648437501	-760.8399047851564	-360.4729919433594	543.5543212890626	-773.0257568359377	-357.8605041503907	481.9985656738282	-770.539733886719	-312.7942504882813	461.9089355468751	-877.4253540039065	-316.3836975097657	346.0164184570313	-770.814147949219	-390.2644042968751	270.6902770996094	-744.2165527343751	-343.6680908203126	265.8467712402344	-749.5849609375001	-327.5511779785157	216.4698638916016	-775.8767700195315	-389.6633605957032	79.2634735107422	-736.0170898437501	-366.7509765625001	86.51775360107423	-818.0742187500002	-444.017547607422	50.82175445556642	-778.2376708984377	-238.8350830078126	51.65153884887697	-792.1990356445315	-233.3673553466797	55.936092376709	-747.7077026367189	-259.8298950195313	33.02596664428712	-694.2803344726564	
